<svg width="26" height="23" viewBox="0 0 26 23" fill="none" xmlns="http://www.w3.org/2000/svg">
<path d="M21.7568 11.3472C22.8148 12.5473 23.3994 14.0988 23.3994 15.7064C23.3994 17.314 22.8148 18.8654 21.7568 20.0656H13.8936C14.9515 18.8654 15.5361 17.314 15.5361 15.7064C15.5361 14.0988 14.9515 12.5473 13.8936 11.3472C14.9515 10.147 15.5362 8.59546 15.5362 6.98781C15.5362 5.38015 14.9515 3.82861 13.8936 2.62842L21.7568 2.62842C22.8148 3.82861 23.3995 5.38015 23.3995 6.98781C23.3995 8.59546 22.8148 10.147 21.7568 11.3472Z" fill="#7FF1AB"/>
<path d="M14.7383 11.3472C15.7962 12.5473 16.3809 14.0988 16.3809 15.7064C16.3809 17.314 15.7962 18.8654 14.7383 20.0656H2.59961V2.62842H14.7383C15.7963 3.82861 16.3809 5.38015 16.3809 6.98781C16.3809 8.59546 15.7963 10.147 14.7383 11.3472V11.3472Z" fill="#604DAD"/>
</svg>
