<svg width="24" height="26" viewBox="0 0 24 26" fill="none" xmlns="http://www.w3.org/2000/svg">
<path fill-rule="evenodd" clip-rule="evenodd" d="M8.30867 2.56235C6.83607 3.9594 6.05486 6.19901 5.73194 9.12645C5.66719 9.71342 5.62267 10.3094 5.59022 10.9633C5.57779 11.2137 5.56756 11.462 5.55676 11.7618C5.55425 11.8316 5.53734 12.3214 5.53248 12.45C5.51566 12.8946 5.45505 13.3333 5.33057 14.0123C5.31782 14.0818 5.22916 14.5567 5.20388 14.6965C4.74606 17.2286 4.98936 18.6927 6.65569 20.3879C8.45445 22.2178 11.36 23.8989 13.9935 24.6215C16.8933 25.4172 19.0159 24.9689 19.7402 23.1796C20.979 20.1195 20.9906 18.6643 19.5611 15.226C19.2235 14.414 19.0874 13.6262 18.9945 12.3221C18.9841 12.1769 18.9503 11.6677 18.9439 11.576C18.7564 8.88023 18.2524 7.37591 16.5247 5.61831C16.013 5.09774 15.5814 4.62781 14.9 3.86268C13.1613 1.91028 12.6278 1.40522 11.8168 1.11868C10.8275 0.769168 9.77148 1.17459 8.30867 2.56235Z" stroke="black" stroke-width="0.388696"/>
<path fill-rule="evenodd" clip-rule="evenodd" d="M7.85566 4.43914C6.58156 5.65039 5.90615 7.59637 5.6288 10.1417C5.57314 10.6525 5.53505 11.1712 5.5075 11.7404C5.49695 11.9584 5.4883 12.1746 5.47921 12.4357C5.47709 12.4965 5.46287 12.9232 5.45877 13.0352C5.44453 13.4237 5.39217 13.8067 5.28445 14.399C5.27343 14.4596 5.19683 14.8731 5.17501 14.9948C4.78058 17.1942 4.99241 18.4633 6.43691 19.9358C7.99962 21.5289 10.5236 22.9942 12.8098 23.6252C15.322 24.3185 17.155 23.9324 17.7777 22.3873C18.8494 19.7278 18.8581 18.4659 17.6143 15.4745C17.3189 14.7642 17.1996 14.076 17.1174 12.9378C17.1083 12.8113 17.0783 12.3676 17.0727 12.2878C16.9074 9.9437 16.4693 8.63723 14.9699 7.10868C14.5243 6.65441 14.1485 6.24443 13.5553 5.57703C12.0451 3.87807 11.5815 3.43824 10.8812 3.18963C10.0302 2.88751 9.1205 3.23668 7.85566 4.43914Z" stroke="black" stroke-width="0.388696"/>
<path fill-rule="evenodd" clip-rule="evenodd" d="M8.44583 6.34395C11.1374 3.75173 11.9163 5.89991 14.514 8.58268C16.9985 11.1486 15.8547 13.5044 16.7271 15.6299C17.8548 18.3776 17.6717 19.4839 16.8627 21.5176C15.681 24.4883 9.86751 22.1906 7.26983 19.5078C5.20075 17.371 6.36019 15.4017 6.42417 13.6326C6.48515 11.9464 6.50517 8.213 8.44583 6.34395ZM11.7015 17.4613C11.7665 17.4591 11.8314 17.4539 11.8962 17.4457C11.9087 17.463 11.9315 17.4799 11.9646 17.4964C11.9977 17.513 12.0291 17.5207 12.0586 17.5197C12.1709 17.5158 12.2591 17.498 12.3231 17.4662C12.3871 17.4345 12.4774 17.393 12.5939 17.3418C12.8041 17.2578 13.0163 17.1501 13.2307 17.0188C13.4451 16.8875 13.638 16.7348 13.8095 16.5608C13.9809 16.3867 14.1191 16.1917 14.224 15.9757C14.3289 15.7597 14.3767 15.5192 14.3674 15.2541C14.3629 15.1245 14.3376 14.9956 14.2917 14.8675C14.2458 14.7393 14.1826 14.625 14.1022 14.5246C14.0217 14.4242 13.9257 14.345 13.8142 14.287C13.7027 14.2289 13.5789 14.2023 13.443 14.207C13.2952 14.2121 13.1449 14.2734 12.9922 14.3908C12.8395 14.5082 12.7011 14.6545 12.577 14.8299C12.5094 14.9266 12.4459 15.0143 12.3865 15.0931C12.3271 15.1718 12.2751 15.2503 12.2305 15.3285C12.1802 15.4129 12.1383 15.4866 12.105 15.5496C12.0717 15.6127 12.0444 15.6771 12.023 15.7427C12.0169 15.737 12.0133 15.7195 12.0123 15.69C12.009 15.5958 12.0161 15.5026 12.0336 15.4106C12.0511 15.3186 12.0733 15.2337 12.1001 15.1561C12.1162 15.1084 12.1334 15.0488 12.1516 14.9774C12.1698 14.906 12.1879 14.8302 12.2058 14.7499C12.2237 14.6697 12.243 14.5879 12.2638 14.5046C12.2845 14.4213 12.3055 14.3439 12.3267 14.2724C12.3423 14.2129 12.3684 14.1132 12.405 13.9733C12.4415 13.8334 12.4777 13.6833 12.5135 13.5228C12.5493 13.3623 12.5839 13.2107 12.6174 13.068C12.6509 12.9253 12.6754 12.8241 12.6911 12.7646C12.7066 12.6992 12.7286 12.61 12.7572 12.4969C12.7858 12.3838 12.8129 12.2694 12.8384 12.1535C12.8639 12.0376 12.8855 11.9351 12.9031 11.846C12.9207 11.7569 12.9291 11.7006 12.9282 11.677C12.9276 11.6594 12.9299 11.6386 12.9349 11.6149C12.9451 11.5673 12.9496 11.5259 12.9483 11.4906C12.9448 11.3904 12.9278 11.3261 12.8972 11.2977C12.8725 11.2691 12.8509 11.2418 12.8322 11.2159C12.8135 11.19 12.6518 11.0497 12.5927 11.0518C12.5336 11.0538 12.4872 11.0834 12.4537 11.1406C12.4202 11.1978 12.4011 11.2442 12.3965 11.2798C12.3916 11.3094 12.3868 11.342 12.3821 11.3776C12.3773 11.4072 12.374 11.4413 12.3724 11.4797C12.3708 11.518 12.3648 11.5581 12.3544 11.5997C12.3448 11.6649 12.3361 11.7522 12.3281 11.8616C12.3201 11.971 12.3059 12.0732 12.2855 12.1683C12.2404 12.3999 12.1868 12.645 12.1249 12.9038C12.0629 13.1625 11.9965 13.4213 11.9257 13.6804C11.8548 13.9394 11.7868 14.1939 11.7216 14.4439C11.6563 14.6939 11.5977 14.92 11.5456 15.1224C11.5149 15.2591 11.4829 15.4032 11.4498 15.5548C11.4166 15.7063 11.3892 15.8547 11.3677 16C11.3461 16.1452 11.3288 16.2844 11.3157 16.4176C11.3026 16.5507 11.2978 16.6674 11.3013 16.7675C11.303 16.8147 11.3094 16.8719 11.3207 16.9394C11.3319 17.0068 11.3461 17.0727 11.3631 17.1369C11.3802 17.2012 11.3984 17.2581 11.4179 17.3076C11.4374 17.357 11.4563 17.3903 11.4747 17.4073C11.5175 17.4471 11.5685 17.466 11.6276 17.4639C11.7103 17.461 11.6364 17.4636 11.7015 17.4613ZM10.7514 17.6742L10.7942 17.6285C10.794 17.6226 10.7968 17.6166 10.8025 17.6105C10.8082 17.6044 10.8165 17.5894 10.8275 17.5654C10.8385 17.5415 10.8438 17.5236 10.8434 17.5118C10.854 17.476 10.8582 17.4258 10.8559 17.361L10.8548 17.3286C10.8486 17.1519 10.842 17.0076 10.8352 16.8958C10.8283 16.7839 10.8229 16.6721 10.819 16.5601L10.8064 16.2023C10.8043 16.1404 10.8038 16.0859 10.8052 16.0387C10.8065 15.9914 10.8069 15.9619 10.8065 15.9502C10.8017 15.8147 10.8077 15.8587 10.8141 15.7877C10.8205 15.7167 10.8224 15.6429 10.8197 15.5663C10.7978 15.4491 10.7503 15.3594 10.6771 15.297C10.6284 15.2575 10.5784 15.2253 10.5272 15.2005C10.4761 15.1758 10.4268 15.1642 10.3795 15.1659C10.3263 15.1677 10.2604 15.1862 10.1817 15.2214C10.1031 15.2566 10.0294 15.3078 9.96073 15.3751C9.94932 15.3873 9.92634 15.4072 9.8918 15.435C9.85726 15.4627 9.80862 15.5101 9.74586 15.5772C9.66537 15.6449 9.57098 15.7381 9.46269 15.8569C9.3544 15.9757 9.23117 16.0905 9.09301 16.2015L8.99857 16.2933C8.94132 16.3483 8.89511 16.3809 8.85995 16.391C8.82479 16.4011 8.79835 16.4064 8.78061 16.407C8.75697 16.4078 8.73856 16.3893 8.7254 16.3514C8.71224 16.3136 8.70514 16.2799 8.70411 16.2504C8.70266 16.2092 8.6984 16.0029 8.70163 15.9261C8.70486 15.8494 8.71634 15.7546 8.73607 15.6418L9.08306 13.8044C9.09365 13.7686 9.09853 13.739 9.0977 13.7154C9.16685 13.3237 9.22406 12.9295 9.26936 12.5328C9.26812 12.4974 9.27015 12.4708 9.27544 12.453C9.28053 12.4292 9.28266 12.4055 9.28183 12.382L9.27936 12.3113C9.27771 12.2641 9.27463 12.2185 9.27013 12.1745C9.26563 12.1304 9.26255 12.0848 9.2609 12.0377L9.25765 11.9449C9.25672 11.9184 9.25279 11.8905 9.24584 11.8613C9.24502 11.8377 9.24578 11.817 9.24811 11.7992C9.25045 11.7815 9.25131 11.7637 9.25069 11.7461C9.24883 11.6931 9.23546 11.6493 9.21058 11.6148C9.19752 11.5798 9.18752 11.5477 9.18058 11.5185C9.17363 11.4893 9.15487 11.4604 9.12428 11.432L9.042 11.3641C9.02977 11.3527 9.01769 11.3458 9.00576 11.3432C8.99384 11.3407 8.98049 11.3352 8.96163 11.3448C8.94278 11.3543 8.94406 11.3557 8.92735 11.3858C8.91594 11.398 8.90764 11.4145 8.90245 11.4353C8.89726 11.4561 8.88927 11.4815 8.87848 11.5113C8.86749 11.5353 8.86102 11.5621 8.8591 11.5916C8.85718 11.6212 8.85082 11.6509 8.84003 11.6808C8.82985 11.7283 8.82274 11.7787 8.81869 11.8319C8.81463 11.8851 8.81047 11.9354 8.80621 11.9827L8.78611 12.1692C8.7725 12.2876 8.7592 12.4149 8.74621 12.551C8.73322 12.6871 8.71422 12.8205 8.6892 12.9511C8.68026 13.034 8.67071 13.0992 8.66054 13.1467C8.65566 13.1764 8.65083 13.2075 8.64605 13.2401C8.64127 13.2727 8.63349 13.304 8.6227 13.3338C8.58668 13.4884 8.55225 13.6459 8.51939 13.8063C8.48654 13.9667 8.45516 14.127 8.42526 14.2873L8.40176 14.3766C8.34663 14.6616 8.29727 14.942 8.25366 15.2178C8.21005 15.4936 8.19319 15.7728 8.20309 16.0556L8.21036 16.2632C8.21129 16.2897 8.21533 16.3205 8.22248 16.3557C8.22351 16.3851 8.22607 16.416 8.23016 16.4483C8.23425 16.4806 8.23691 16.5144 8.23815 16.5498L8.26269 16.7435C8.26963 16.7728 8.2751 16.8021 8.27909 16.8314C8.28307 16.8608 8.28558 16.8902 8.28661 16.9196L8.347 17.1209C8.35985 17.1499 8.42121 17.2452 8.45751 17.2676C8.51215 17.3069 8.63542 17.2466 8.67006 17.2218C8.68168 17.2155 8.69181 17.2093 8.70047 17.2031C8.70913 17.1969 8.71927 17.1906 8.73089 17.1843C8.7423 17.1721 8.75386 17.1644 8.76558 17.161C8.7773 17.1576 8.78887 17.1499 8.80028 17.1377C8.93376 17.0622 9.1277 16.8963 9.23946 16.7921C9.30671 16.7294 9.37457 16.6689 9.44303 16.6104C9.48835 16.5717 9.53395 16.534 9.5798 16.4971C9.60262 16.4728 9.61984 16.4574 9.63146 16.4511C9.66589 16.4204 9.6989 16.3913 9.73049 16.3636C9.76207 16.336 9.78938 16.3129 9.8124 16.2944C9.83522 16.27 9.8611 16.2485 9.89004 16.2298C9.93018 16.193 9.97053 16.1621 10.0111 16.1371C10.0457 16.1123 10.1517 16.0128 10.1865 15.9909C10.2212 15.9691 10.2534 15.9576 10.2829 15.9566C10.3066 15.9558 10.3189 15.9701 10.3199 15.9995C10.3226 16.0761 10.2514 16.4089 10.2386 16.5509C10.2259 16.6929 10.221 16.808 10.2241 16.8964C10.2282 17.0142 10.2437 17.1169 10.2704 17.2044C10.2971 17.292 10.3354 17.3703 10.3852 17.4393C10.3915 17.4509 10.4145 17.4737 10.4541 17.5077C10.4938 17.5417 10.5288 17.5699 10.5592 17.5925C10.5716 17.6097 10.5884 17.6239 10.6095 17.635C10.6306 17.646 10.6416 17.6633 10.6654 17.6684C10.7131 17.6785 10.6808 17.6856 10.7163 17.6843C10.734 17.6837 10.7457 17.6803 10.7514 17.6742ZM13.2088 16.3112C13.4201 16.151 13.3376 16.2037 13.537 16.007C13.7364 15.8103 13.7855 15.4984 13.7785 15.2983C13.7712 15.0877 13.7351 14.9651 13.6705 14.9305C13.6058 14.8958 13.5312 14.88 13.4466 14.8829C13.3938 14.8848 13.3289 14.9186 13.2518 14.9846C13.1748 15.0505 12.7195 15.63 12.6031 15.7816C12.4868 15.9333 12.4789 15.9745 12.3884 16.1095C12.2979 16.2444 12.2375 16.3335 12.2073 16.3767C12.1775 16.4304 12.148 16.4947 12.1188 16.5695C12.0897 16.6443 12.0814 16.8606 12.0836 16.9238C12.0862 16.9975 12.1087 17.0336 12.1509 17.0321C12.1932 17.0306 12.2763 16.9882 12.4003 16.9048C12.5244 16.8214 12.6687 16.7136 12.8333 16.5814C12.936 16.4935 12.9975 16.4714 13.2088 16.3112Z" fill="black"/>
</svg>
