<svg width="24" height="24" viewBox="0 0 24 24" fill="none" xmlns="http://www.w3.org/2000/svg">
<path d="M12.2857 13.2745V19.7165C12.2859 19.8265 12.257 19.9346 12.202 20.03C12.147 20.1254 12.0678 20.2046 11.9724 20.2598L8.3711 22.2432C8.32361 22.271 8.26961 22.2856 8.2146 22.2858C8.15959 22.2859 8.10554 22.2715 8.05789 22.2441C8.01025 22.2167 7.97075 22.1771 7.94335 22.1295C7.91595 22.0819 7.90165 22.0279 7.90194 21.973V15.7122C7.90194 15.602 7.87283 15.4938 7.81762 15.3984C7.76236 15.303 7.68291 15.2238 7.58724 15.1689L2.1569 12.0392C2.1092 12.0118 2.06959 11.9723 2.04204 11.9248C2.0145 11.8772 2 11.8232 2 11.7683C2 11.7133 2.0145 11.6593 2.04204 11.6118C2.06959 11.5642 2.1092 11.5247 2.1569 11.4973L5.75539 9.51241C5.85089 9.45753 5.95916 9.42864 6.06938 9.42864C6.17956 9.42864 6.28783 9.45753 6.38333 9.51241L11.9682 12.7327C12.0635 12.7875 12.1426 12.8666 12.1976 12.9617C12.2526 13.0568 12.2815 13.1647 12.2814 13.2745" fill="white"/>
<path d="M21.7083 7.81021V18.6425C21.708 18.7618 21.6771 18.8789 21.6187 18.9821C21.5602 19.0853 21.4762 19.171 21.3752 19.2305L16.2822 22.2399C16.2319 22.2698 16.1747 22.2857 16.1164 22.2858C16.0581 22.2859 16.0009 22.2703 15.9504 22.2406C15.8999 22.2109 15.8579 22.168 15.8288 22.1164C15.7996 22.0648 15.7842 22.0062 15.7842 21.9466V11.3109C15.7842 11.1915 15.7536 11.0742 15.6954 10.9707C15.6372 10.8673 15.5535 10.7813 15.4527 10.7213L6.45175 5.4042C6.40125 5.37448 6.35935 5.33163 6.33019 5.27999C6.30103 5.22836 6.28571 5.16983 6.28571 5.11021C6.28571 5.05059 6.30103 4.99201 6.33019 4.94038C6.35935 4.88875 6.40125 4.84594 6.45175 4.81617L11.5523 1.80525C11.6533 1.7457 11.7679 1.71436 11.8845 1.71436C12.0011 1.71436 12.1157 1.7457 12.2168 1.80525L21.3812 7.22214C21.4823 7.28167 21.5662 7.36733 21.6246 7.47056C21.6831 7.57374 21.714 7.69088 21.7143 7.81021" fill="white"/>
</svg>
