<svg width="24" height="25" viewBox="0 0 24 25" fill="none" xmlns="http://www.w3.org/2000/svg">
<path fill-rule="evenodd" clip-rule="evenodd" d="M3 18.8102L3 22.395L6.57408 22.395L6.57408 18.8102L3 18.8102ZM3 10.5107L3 14.0955L6.57407 14.0955L6.57407 10.5107L3 10.5107ZM18.4259 10.5108L18.4259 14.0956L22 14.0956L22 10.5108L18.4259 10.5108ZM3 5.97983L3 2.39502L6.57407 2.39502L6.57407 5.97983L3 5.97983ZM10.7129 9.94121L10.7129 6.35641L14.287 6.35641L14.287 9.94121L10.7129 9.94121ZM10.7129 14.6605L10.7129 18.2454L14.287 18.2454L14.287 14.6605L10.7129 14.6605Z" fill="black"/>
</svg>
